<svg width="572" height="572" viewBox="0 0 572 572" fill="none" xmlns="http://www.w3.org/2000/svg">
<rect width="571.966" height="571.966" fill="#001AFF"/>
<path d="M83.3934 194.258H155.632C169.931 194.258 180.574 194.874 187.56 196.107C194.627 197.258 200.914 199.723 206.421 203.504C212.009 207.284 216.652 212.338 220.35 218.666C224.049 224.912 225.898 231.939 225.898 239.746C225.898 248.211 223.597 255.977 218.994 263.045C214.474 270.113 208.311 275.413 200.503 278.947C211.516 282.152 219.981 287.617 225.898 295.343C231.815 303.068 234.773 312.149 234.773 322.586C234.773 330.804 232.842 338.817 228.98 346.624C225.199 354.35 219.981 360.554 213.324 365.239C206.749 369.841 198.613 372.676 188.916 373.745C182.834 374.402 168.165 374.813 144.907 374.977H83.3934V194.258ZM119.882 224.337V266.127H143.797C158.015 266.127 166.85 265.921 170.301 265.51C176.547 264.771 181.437 262.634 184.971 259.1C188.587 255.484 190.395 250.759 190.395 244.924C190.395 239.335 188.833 234.815 185.711 231.363C182.67 227.83 178.109 225.693 172.027 224.953C168.411 224.542 158.015 224.337 140.839 224.337H119.882ZM119.882 296.205V344.529H153.659C166.809 344.529 175.15 344.159 178.684 343.419C184.108 342.433 188.505 340.05 191.874 336.269C195.326 332.407 197.052 327.27 197.052 320.86C197.052 315.436 195.737 310.834 193.107 307.054C190.477 303.273 186.656 300.52 181.642 298.794C176.712 297.068 165.946 296.205 149.345 296.205H119.882ZM264.606 374.977V194.258H301.095V374.977H264.606ZM420.054 308.533V278.084H498.702V350.076C491.059 357.472 479.965 364.006 465.418 369.677C450.954 375.265 436.285 378.059 421.41 378.059C402.508 378.059 386.03 374.114 371.977 366.225C357.924 358.253 347.363 346.912 340.296 332.201C333.228 317.408 329.694 301.342 329.694 284.001C329.694 265.182 333.639 248.457 341.528 233.829C349.418 219.2 360.965 207.983 376.168 200.175C387.756 194.176 402.179 191.176 419.437 191.176C441.873 191.176 459.378 195.902 471.952 205.353C484.608 214.722 492.744 227.706 496.36 244.307L460.118 251.087C457.57 242.212 452.762 235.226 445.695 230.131C438.709 224.953 429.957 222.365 419.437 222.365C403.494 222.365 390.797 227.419 381.346 237.527C371.977 247.636 367.293 262.634 367.293 282.522C367.293 303.972 372.059 320.079 381.592 330.845C391.126 341.529 403.617 346.871 419.068 346.871C426.711 346.871 434.353 345.392 441.996 342.433C449.722 339.392 456.337 335.735 461.844 331.462V308.533H420.054Z" fill="#FDFDFF"/>
</svg>
